<?xml version="1.0" encoding="UTF-8" standalone="no"?>
<!-- Created with Inkscape (http://www.inkscape.org/) -->

<svg
   xmlns:dc="http://purl.org/dc/elements/1.1/"
   xmlns:cc="http://creativecommons.org/ns#"
   xmlns:rdf="http://www.w3.org/1999/02/22-rdf-syntax-ns#"
   xmlns:svg="http://www.w3.org/2000/svg"
   xmlns="http://www.w3.org/2000/svg"
   xmlns:sodipodi="http://sodipodi.sourceforge.net/DTD/sodipodi-0.dtd"
   xmlns:inkscape="http://www.inkscape.org/namespaces/inkscape"
   width="31.469528mm"
   height="32.987549mm"
   viewBox="0 0 111.5062 116.88502"
   id="svg2"
   version="1.1"
   inkscape:version="0.91 r13725"
   sodipodi:docname="analys.svg">
  <defs
     id="defs4" />
  <sodipodi:namedview
     id="base"
     pagecolor="#ffffff"
     bordercolor="#666666"
     borderopacity="1.0"
     inkscape:pageopacity="0.0"
     inkscape:pageshadow="2"
     inkscape:zoom="1.979899"
     inkscape:cx="30.456002"
     inkscape:cy="11.665494"
     inkscape:document-units="px"
     inkscape:current-layer="layer1"
     showgrid="false"
     inkscape:window-width="1440"
     inkscape:window-height="881"
     inkscape:window-x="-4"
     inkscape:window-y="-4"
     inkscape:window-maximized="1"
     fit-margin-top="0"
     fit-margin-left="0"
     fit-margin-right="0"
     fit-margin-bottom="0" />
  <metadata
     id="metadata7">
    <rdf:RDF>
      <cc:Work
         rdf:about="">
        <dc:format>image/svg+xml</dc:format>
        <dc:type
           rdf:resource="http://purl.org/dc/dcmitype/StillImage" />
        <dc:title></dc:title>
      </cc:Work>
    </rdf:RDF>
  </metadata>
  <g
     inkscape:label="Layer 1"
     inkscape:groupmode="layer"
     id="layer1"
     transform="translate(-8.3052444,-14.684701)">
    <path
       style="fill:#ffffff;fill-opacity:1;fill-rule:evenodd;stroke:none;stroke-width:1px;stroke-linecap:butt;stroke-linejoin:miter;stroke-opacity:1"
       d="M 54.976262,131.82226 C 40.37231,96.635979 24.068691,62.273164 8.5577819,27.528903 31.818256,23.318302 55.07873,19.1077 78.339204,14.897099 91.865118,47.178374 105.39103,79.459649 118.91695,111.74092 97.603387,118.4347 76.289824,125.12848 54.976262,131.82226 Z"
       id="path4446"
       inkscape:connector-curvature="0" />
    <path
       style="fill:none;fill-rule:evenodd;stroke:#000000;stroke-width:1.24948311px;stroke-linecap:butt;stroke-linejoin:miter;stroke-opacity:1"
       d="m 56.513298,110.44536 c 3.131071,-1.85838 10.741689,-8.07474 10.287491,-0.0879 3.652692,6.36547 5.397207,-7.44821 10.938151,-4.66869 5.730407,-2.98348 11.125909,3.60709 16.196019,-2.2177 2.950132,-2.80067 7.516071,-3.638192 10.626651,-3.04191 0.32987,-0.42603 0.53168,-1.186183 1.13688,-1.319983"
       id="path4448"
       inkscape:connector-curvature="0" />
    <path
       style="fill:none;fill-rule:evenodd;stroke:#000000;stroke-width:1.24948311px;stroke-linecap:butt;stroke-linejoin:miter;stroke-opacity:1"
       d="m 52.209597,101.70026 c -2.64024,-4.80295 4.489737,-13.806483 7.104486,-6.063788 6.114758,3.250776 12.275121,-6.919423 18.078903,-0.467517 6.046974,1.096635 10.207282,-6.210591 16.315131,-4.995569 2.173792,-0.883658 2.230626,-3.982673 4.30515,-4.99169"
       id="path4458"
       inkscape:connector-curvature="0" />
    <path
       style="fill:none;fill-rule:evenodd;stroke:#000000;stroke-width:1.24948311px;stroke-linecap:butt;stroke-linejoin:miter;stroke-opacity:1"
       d="M 23.005918,33.682857 C 29.649929,47.36826 36.293938,61.053662 42.937949,74.739066 59.02559,70.63643 75.113229,66.533791 91.200871,62.431155"
       id="path4473"
       inkscape:connector-curvature="0" />
    <path
       style="fill:none;fill-rule:evenodd;stroke:#000000;stroke-width:1.24948311px;stroke-linecap:butt;stroke-linejoin:miter;stroke-opacity:1"
       d="m 42.833679,70.606591 c -2.730944,-3.309942 0.598229,-12.370698 3.729368,-5.397127 3.330828,1.346092 6.206803,-5.47749 9.583943,-0.91317 7.681572,3.265388 11.009009,-7.891593 8.361389,-13.83745 -0.739186,-5.816274 6.797466,-7.250587 5.410868,-13.119703 -0.03225,-2.861427 -0.675703,-5.7815 -2.185594,-8.190772"
       id="path4479"
       inkscape:connector-curvature="0" />
    <path
       style="fill:none;fill-rule:evenodd;stroke:#000000;stroke-width:1.24948311px;stroke-linecap:butt;stroke-linejoin:miter;stroke-opacity:1"
       d="m 33.918873,64.452636 c 2.151849,-0.431856 4.303698,-0.863714 6.455549,-1.295569"
       id="path4496"
       inkscape:connector-curvature="0" />
    <path
       style="fill:none;fill-rule:evenodd;stroke:#000000;stroke-width:1.24948311px;stroke-linecap:butt;stroke-linejoin:miter;stroke-opacity:1"
       d="m 30.38369,56.841165 c 2.049381,-0.377875 4.098761,-0.755748 6.148143,-1.133624"
       id="path4498"
       inkscape:connector-curvature="0" />
    <path
       style="fill:none;fill-rule:evenodd;stroke:#000000;stroke-width:1.24948311px;stroke-linecap:butt;stroke-linejoin:miter;stroke-opacity:1"
       d="m 27.309619,50.039424 c 2.100614,-0.377874 4.20123,-0.755748 6.301845,-1.133623"
       id="path4500"
       inkscape:connector-curvature="0" />
  </g>
</svg>
