<?xml version="1.0" encoding="UTF-8" standalone="no"?>
<!-- Created with Inkscape (http://www.inkscape.org/) -->

<svg
   xmlns:dc="http://purl.org/dc/elements/1.1/"
   xmlns:cc="http://creativecommons.org/ns#"
   xmlns:rdf="http://www.w3.org/1999/02/22-rdf-syntax-ns#"
   xmlns:svg="http://www.w3.org/2000/svg"
   xmlns="http://www.w3.org/2000/svg"
   xmlns:sodipodi="http://sodipodi.sourceforge.net/DTD/sodipodi-0.dtd"
   xmlns:inkscape="http://www.inkscape.org/namespaces/inkscape"
   width="31.469528mm"
   height="32.987549mm"
   viewBox="0 0 111.5062 116.88502"
   id="svg2"
   version="1.1"
   inkscape:version="0.91 r13725"
   sodipodi:docname="globe.svg">
  <defs
     id="defs4" />
  <sodipodi:namedview
     id="base"
     pagecolor="#ffffff"
     bordercolor="#666666"
     borderopacity="1.0"
     inkscape:pageopacity="0.0"
     inkscape:pageshadow="2"
     inkscape:zoom="3.959798"
     inkscape:cx="51.399845"
     inkscape:cy="76.605221"
     inkscape:document-units="px"
     inkscape:current-layer="layer1"
     showgrid="false"
     inkscape:window-width="1440"
     inkscape:window-height="881"
     inkscape:window-x="-4"
     inkscape:window-y="-4"
     inkscape:window-maximized="1"
     fit-margin-top="0"
     fit-margin-left="0"
     fit-margin-right="0"
     fit-margin-bottom="0" />
  <metadata
     id="metadata7">
    <rdf:RDF>
      <cc:Work
         rdf:about="">
        <dc:format>image/svg+xml</dc:format>
        <dc:type
           rdf:resource="http://purl.org/dc/dcmitype/StillImage" />
        <dc:title></dc:title>
      </cc:Work>
    </rdf:RDF>
  </metadata>
  <g
     inkscape:label="Layer 1"
     inkscape:groupmode="layer"
     id="layer1"
     transform="translate(-8.3052444,-14.684701)">
    <g
       id="g4297"
       transform="translate(4.5456865,5.0507627)">
      <path
         style="fill:none;fill-rule:evenodd;stroke:#ffffff;stroke-width:3.42962956;stroke-linecap:butt;stroke-linejoin:miter;stroke-miterlimit:4;stroke-dasharray:none;stroke-opacity:1"
         d="M 83.849159,23.917303 C 75.135843,41.952729 54.638759,52.021799 35.08931,51.47024 26.497426,52.29237 17.856263,52.340188 9.251747,52.973983 M 105.92105,38.445633 C 90.245557,63.993734 60.723581,79.463463 31.054677,80.397222 27.212057,80.89831 23.375568,81.477144 19.589216,82.31003 M 106.75922,63.032051 c -6.780818,26.274014 -32.230327,45.993839 -59.18596,47.052999 -8.13947,1.25667 -16.405789,1.6649 -24.631347,1.28191 m 66.21568,2.23513 C 67.415945,99.116587 54.850643,74.856238 46.77213,50.706906 42.523301,39.55349 38.601875,28.275106 34.117551,17.211918 m 3.073302,-0.838173 c 13.490086,2.947958 23.226236,13.805555 31.055851,24.475565 15.228828,18.300971 24.829109,41.839258 24.278186,65.83776 0.204692,1.57102 0.470113,3.13493 0.82356,4.67963 m -16.204681,7.54356 C 50.919744,119.44134 26.518417,97.638645 23.7193,71.629879 19.944722,57.484539 18.565687,42.584033 20.67756,28.052553 22.623754,22.534178 27.52818,17.701345 33.558769,17.211922 M 110.6707,90.691771 c -0.1174,10.359939 -8.516,19.240759 -18.230539,21.842679 -22.730857,12.25969 -53.86821,9.98181 -72.367682,-8.90643 C 7.9965811,91.386767 4.1343977,72.784462 7.5903968,56.259125 8.8049382,42.995592 13.479234,28.609567 25.220617,21.042451 45.18401,7.59689 73.738391,10.676529 91.395299,26.638151 c 8.860111,6.321126 18.469531,14.729357 18.693371,26.508335 0.97644,12.505926 -2.25429,25.157168 0.58203,37.545285 z"
         id="path4293"
         inkscape:connector-curvature="0" />
    </g>
  </g>
</svg>
