<?xml version="1.0" encoding="UTF-8" standalone="no"?>
<svg
   xmlns:dc="http://purl.org/dc/elements/1.1/"
   xmlns:cc="http://creativecommons.org/ns#"
   xmlns:rdf="http://www.w3.org/1999/02/22-rdf-syntax-ns#"
   xmlns:svg="http://www.w3.org/2000/svg"
   xmlns="http://www.w3.org/2000/svg"
   version="1.1"
   id="svg4194"
   viewBox="0 0 284.66758 119.97541"
   height="33.859726mm"
   width="80.339516mm">
  <defs
     id="defs4196">
    <clipPath
       clipPathUnits="userSpaceOnUse"
       id="clipPath3426">
      <path
         d="m 0,0 680.315,0 0,1360.63 L 0,1360.63 0,0 Z"
         id="path3428" />
    </clipPath>
  </defs>
  <metadata
     id="metadata4199">
    <rdf:RDF>
      <cc:Work
         rdf:about="">
        <dc:format>image/svg+xml</dc:format>
        <dc:type
           rdf:resource="http://purl.org/dc/dcmitype/StillImage" />
        <dc:title></dc:title>
      </cc:Work>
    </rdf:RDF>
  </metadata>
  <g
     transform="translate(-8.3850452,-0.89521195)"
     id="layer2" />
  <g
     transform="translate(-8.3850452,-0.89521195)"
     id="layer1">
    <g
       transform="matrix(1.25,0,0,-1.25,-277.74341,1609.7935)"
       id="g3422">
      <g
         id="g3424"
         clip-path="url(#clipPath3426)">
        <g
           id="g3430"
           transform="translate(420.3074,1248.178)">
          <path
             d="m 0,0 c -0.117,0.252 0.204,0.554 -0.493,0.842 -3.647,0.118 -3.244,1.146 -5.944,1.873 -7.381,0.11 -3.125,-0.877 -11.568,-1.362 -2.391,0.442 -4.9,0.469 -6.475,3.746 -1.465,4.365 0.001,7.849 0.637,11.581 -1.242,2.895 -1.127,5.791 -0.106,8.686 l -1.592,13.199 c -0.732,0.399 -1.089,0.063 -1.061,-1.022 -0.884,2.463 -2.007,1.152 -1.805,0 -0.247,-1.122 -0.393,-0.687 -0.053,-2.044 -0.98,1.356 -2.261,4.364 -2.388,1.277 -1.095,-0.694 -2.198,-1.38 -2.123,-3.406 -1.844,0.9 -1.697,-0.597 -1.592,-2.043 -2.404,-0.007 -1.599,-1.805 -1.91,-2.981 -0.988,-0.248 -1.597,-0.939 -1.486,-2.469 -0.608,-0.708 -1.104,-1.452 -0.531,-2.555 -1.181,-0.109 -1.152,-0.886 -0.743,-1.873 -0.636,0.024 -1.739,-4.119 -1.922,-8.603 -1.212,-1.513 0.291,-1.598 1.922,-1.616 -1.69,-0.13 -3.26,-2.224 -2.278,-3.193 -0.592,-1.008 -0.221,-2.497 -0.057,-3.505 -4.525,-0.432 -5.901,3.572 -8.941,5.421 0.11,-1.135 1.305,-2.271 2.149,-3.406 l -3.821,2.895 c -0.104,-0.908 1.457,-2.088 2.129,-2.996 -2.272,0.38 -3.214,1.294 -4.564,2.044 -0.544,-0.785 -1.733,-2.532 2.027,-4.645 l 6.776,-3.429 c -0.553,-0.573 -1.182,-0.602 -1.804,-0.681 -1.721,0.139 -2.766,0.589 -4.033,0.936 -0.053,-0.357 -0.38,-0.614 0.291,-1.234 -2.747,0.241 -2.56,-1.038 -3.475,-1.746 l 0.955,-0.341 c -1.478,-0.161 -2.056,-1.002 -1.38,-1.554 -1.676,-0.119 -1.042,-0.958 -0.371,-1.426 2.229,-0.212 3.2,0.402 5.89,-0.426 l 2.335,0.937 c 9.835,-1.465 19.67,-0.123 29.506,3.406 3.073,0.56 4.81,1.348 10.932,0.681 C -4.054,-0.313 -2.977,-0.956 0,0"
             style="fill:#ffffff;fill-opacity:1;fill-rule:nonzero;stroke:none"
             id="path3432" />
        </g>
        <g
           id="g3434"
           transform="translate(405.3649,1214.4513)">
          <path
             d="m 0,0 c -0.226,-4.115 1.516,-6.096 2.369,-9.041 0.347,-0.795 0.266,-1.971 0.602,-2.238 0.043,-0.467 -0.024,-1.158 0.215,-1.411 0.186,-0.566 0.076,-1.441 0.516,-1.621 0.208,-0.703 0.099,-1.91 0.689,-2.006 0.358,-0.722 0.402,-2.3 1.118,-2.052 0.123,-1.071 0.228,-2.484 1.043,-1.563 -0.097,-0.708 0.267,-3.573 0.902,-1.252 0.065,0.238 0.247,0.447 0.335,0.786 -0.037,-3.185 0.619,-2.827 0.889,-2.688 0.12,0.554 0.235,2.26 0.423,2.909 0.171,-1.166 -0.342,-3.001 0.882,-3.136 l 0.215,3.032 c 0.295,-0.693 -0.153,-2.214 1.033,-1.913 -0.418,3.592 -0.231,7.183 -0.344,10.775 -0.665,1.653 0.101,4.593 -0.173,6.39 -1.024,1.117 -1.468,2.737 -1.935,4.337 0.7,0.321 1.196,0.375 2.151,1.027 0.372,-0.569 0.676,-1.292 1.376,-1.12 0.305,-0.557 0.45,-1.229 1.216,-0.699 0.592,-1.161 1.017,-1.265 1.236,-0.094 1.335,-1.628 1.435,-1.164 1.205,-0.14 0.433,-0.358 0.799,-0.922 1.42,-0.699 0.554,0.154 0.94,0.842 1.236,1.142 0.356,0.426 0.249,0.865 -0.044,0.66 -1.003,-0.704 -1.654,-1.611 -2.01,0.67 -0.138,0.787 -0.568,1.31 -0.86,1.959 1.341,0.403 2.373,-0.152 3.56,-0.362 1.021,0.034 2.432,0.188 4.054,0.408 0.148,0.13 0.398,0.235 -0.086,0.513 -1.193,0.183 -1.882,0.913 -2.667,1.54 -3.539,0.533 -2.273,-0.803 -5.765,0 -0.38,0.574 -0.791,1.1 -1.376,1.702 C 11.58,6.791 9.693,6.892 8.391,6.748 6.286,6.445 3.273,5.251 1.465,4.252 0.461,3.913 -0.357,3.797 -0.944,3.366 -2.104,3.441 -3.08,3.475 -4.041,3.506 -5.283,2.978 -4.872,2.795 -5.281,2.267 -6.273,1.889 -5.942,1.385 -5.921,0.683 c 0.39,0.159 0.85,0.13 1.321,0.071 L -5.322,0.274 C -3.534,0.314 -2.177,-0.136 0,0"
             style="fill:#ffffff;fill-opacity:1;fill-rule:nonzero;stroke:none"
             id="path3436" />
        </g>
        <g
           id="g3438"
           transform="translate(351.6823,1215.2139)">
          <path
             d="m 0,0 c -0.699,-0.037 -1.401,-0.005 -2.151,-0.005 -0.042,0.38 -0.093,0.619 -0.093,0.857 -10e-4,3.961 -0.014,7.923 0.015,11.884 0.013,1.826 0.493,2.312 2.198,2.306 C 0.992,15.039 2.051,15.11 3.032,14.868 6.315,14.056 8.195,11.092 7.928,7.355 7.571,2.356 5.337,0.278 0,0 m -6.171,-11.048 c -0.011,-0.792 -0.212,-1.709 -0.635,-2.337 -0.867,-1.287 -2.867,-1.13 -3.895,0.323 -0.65,0.918 -1.136,2.007 -1.513,3.091 -3.115,8.964 -6.187,17.945 -9.273,26.921 -0.04,0.115 -0.093,0.224 -0.16,0.384 -0.991,0.072 -1.532,-0.38 -1.903,-1.382 -3.069,-8.271 -6.179,-16.526 -9.29,-24.78 -0.409,-1.083 -0.84,-2.165 -1.365,-3.189 -1.101,-2.143 -3.517,-2.922 -5.623,-1.898 -1.166,0.567 -1.342,1.684 -1.387,2.83 -0.129,3.252 -0.22,6.507 -0.32,9.76 -0.119,3.922 -0.233,7.844 -0.347,11.766 -0.012,0.417 -0.013,0.835 0.002,1.253 0.097,2.735 0.709,3.357 3.289,3.357 l 4.142,0 c 0.364,0.966 0.111,1.34 -0.809,1.437 -2.723,0.283 -3.545,1.126 -3.577,4.072 -0.069,6.674 -0.021,13.35 -0.021,20.115 0.28,-0.344 0.603,-0.722 0.907,-1.116 6.174,-8.004 12.354,-16.002 18.503,-24.027 0.58,-0.757 1.148,-1.225 2.221,-0.857 0,3.225 -0.007,6.396 0.002,9.567 0.015,5.39 0.028,10.78 0.068,16.169 0.007,0.957 0.106,1.917 0.216,2.87 0.187,1.627 0.941,2.459 2.46,2.784 0.193,0.041 0.393,0.05 0.59,0.071 4.035,0.44 5.041,-0.455 5.055,-4.666 0.024,-6.978 0.017,-13.956 -0.013,-20.934 -0.013,-3.127 -0.659,-3.811 -3.579,-4.059 -0.351,-0.03 -0.698,-0.094 -1.094,-0.148 l 0,-1.278 c 1.624,0 3.24,0.003 4.856,-10e-4 1.734,-0.005 2.376,-0.579 2.472,-2.425 0.109,-2.082 0.153,-4.171 0.149,-6.257 -0.013,-5.806 -0.041,-11.611 -0.128,-17.416 m -22.001,9.289 c 1.505,4.273 2.954,8.389 4.402,12.504 l 0.31,0.009 c 1.362,-4.133 2.723,-8.265 4.122,-12.513 l -8.834,0 z m -15.746,18.517 c -1.263,0.132 -1.773,-0.448 -2.257,-1.566 -3.203,-7.394 -6.472,-14.755 -9.722,-22.127 -0.164,-0.371 -0.346,-0.735 -0.621,-1.317 -0.27,0.565 -0.464,0.943 -0.634,1.333 -3.294,7.58 -6.594,15.156 -9.858,22.751 -0.289,0.672 -0.61,0.911 -1.308,0.908 -2.623,-0.009 -3.506,0.839 -3.56,3.616 -0.127,6.551 -0.178,13.104 -0.255,19.656 -0.003,0.197 0.033,0.394 0.077,0.88 0.887,-1.127 1.635,-2.062 2.367,-3.01 5.744,-7.451 11.495,-14.895 17.213,-22.368 0.583,-0.762 1.155,-1.204 2.209,-0.829 0,0.446 -10e-4,0.938 0,1.43 0.02,8.101 0.033,16.202 0.07,24.304 0.004,0.957 0.106,1.916 0.216,2.868 0.183,1.589 0.877,2.469 2.351,2.733 2.19,0.394 4.349,0.296 5.764,-1.85 0.508,-0.771 0.846,-1.844 0.846,-2.78 0.004,-7.011 -0.091,-14.022 -0.173,-21.034 -0.006,-0.536 -0.109,-1.081 -0.236,-1.603 -0.321,-1.329 -1.187,-2.131 -2.489,-1.995 m -30.328,3.576 c -0.048,-2.731 -1.051,-3.691 -3.65,-3.903 -0.079,-0.006 -0.158,-0.022 -0.237,-0.022 -4.407,0.029 -4.7,0.834 -4.699,4.606 0,3.423 0,6.846 0,10.269 l 0.02,0 c 0,3.798 -0.019,7.597 0.007,11.395 0.017,2.477 0.767,3.278 3.105,3.451 1.904,0.14 3.707,-0.156 4.813,-1.984 0.484,-0.798 0.826,-1.851 0.826,-2.789 0.002,-7.007 -0.06,-14.016 -0.185,-21.023 m 99.209,-31.972 c -0.12,3.914 -0.037,7.835 -0.037,11.796 1.314,0.232 1.982,-0.7 2.666,-1.54 3.689,-4.532 7.36,-9.079 11.049,-13.61 0.246,-0.303 0.576,-0.74 0.875,-0.749 2.317,-0.062 4.635,-0.034 6.914,-0.034 0.199,0.879 0.153,1.347 -0.726,1.46 -1.517,0.196 -2.739,1.069 -3.743,2.242 -2.918,3.409 -5.825,6.829 -8.707,10.271 -1.253,1.495 -2.437,3.054 -3.576,4.49 2.611,2.815 5.123,5.539 7.65,8.245 2.271,2.433 4.798,4.363 8.207,4.494 0.06,0.003 0.116,0.097 0.229,0.199 -0.016,0.31 -0.036,0.664 -0.055,1.025 l -11.301,0 c 0.037,-0.468 0.068,-0.86 0.099,-1.25 0.312,-0.049 0.514,-0.052 0.697,-0.116 0.654,-0.227 1.3,-0.475 1.949,-0.715 C 36.872,13.956 36.712,13.222 36.29,12.747 33.393,9.491 30.469,6.261 27.489,3.09 26.825,2.384 25.906,1.945 24.933,1.262 c 0,4.007 -0.095,7.674 0.039,11.332 0.07,1.91 0.878,2.512 2.948,2.681 0.903,0.073 1.231,0.402 0.909,1.369 l -12.002,0 c 0.026,-0.44 0.047,-0.798 0.073,-1.22 0.454,-0.053 0.842,-0.101 1.231,-0.142 2.006,-0.208 2.669,-0.877 2.788,-2.978 0.094,-1.665 0.145,-3.337 0.138,-5.005 -0.03,-6.264 -0.087,-12.528 -0.146,-18.791 -0.01,-1.11 -0.305,-2.2 -1.411,-2.501 -1.269,-0.346 -2.699,-1.215 -3.882,0.086 -1.447,1.59 -2.891,3.218 -4.092,5.012 -1.882,2.81 -3.559,5.773 -5.315,8.658 1.135,0.769 2.123,1.317 2.981,2.037 3.893,3.272 4.173,9.148 0.585,12.723 -0.582,0.579 -0.423,1.08 -0.299,1.67 0.46,2.189 0.932,4.375 1.4,6.567 C 9.906,23.22 9.409,23.021 9.095,22.012 8.828,21.151 8.354,20.357 7.944,19.549 6.968,17.624 5.376,16.782 3.365,16.746 1.78,16.717 0.195,16.698 -1.389,16.745 c -2.484,0.074 -3.408,1.06 -3.444,3.719 -0.044,3.217 -0.025,6.434 -0.024,9.651 0,0.238 0.069,0.475 0.108,0.731 1.949,0 3.844,0.024 5.739,-0.007 2.493,-0.04 2.954,-0.41 3.519,-2.904 0.215,-0.947 0.653,-1.095 1.404,-0.754 l 0,9.238 C 4.938,36.814 4.624,36.342 4.485,35.493 4.286,34.281 3.861,33.084 2.522,33.021 0.094,32.907 -2.341,32.989 -4.84,32.989 c 0,3.916 -0.024,7.879 0.042,11.839 0.006,0.35 0.593,0.985 0.912,0.986 2.529,0.008 5.06,-0.064 7.585,-0.205 1.057,-0.058 1.854,-0.707 2.26,-1.774 0.454,-1.192 0.878,-2.396 1.337,-3.656 0.347,0.077 0.722,0.162 1.178,0.264 -0.132,2.36 -0.261,4.679 -0.393,7.032 l -32.065,0 c -0.344,-1.086 0.157,-1.282 0.981,-1.355 2.613,-0.234 3.39,-1.068 3.655,-3.785 0.024,-0.248 0.04,-0.5 0.043,-0.75 0.08,-6.054 0.159,-12.108 0.233,-18.162 0.003,-0.267 -0.047,-0.535 -0.1,-1.109 -0.506,0.61 -0.84,0.996 -1.156,1.396 -6.06,7.668 -12.126,15.331 -18.161,23.02 -0.48,0.612 -0.951,0.85 -1.696,0.845 -5.268,-0.032 -10.537,-0.016 -15.806,-0.019 -0.349,0 -0.698,-0.034 -1.037,-0.052 -0.121,-1.253 -0.121,-1.253 1.059,-1.375 2.471,-0.255 3.268,-1.062 3.564,-3.623 0.038,-0.331 0.054,-0.666 0.059,-1 0.081,-5.971 0.159,-11.941 0.231,-17.912 0.004,-0.333 -0.054,-0.668 -0.107,-1.286 -0.533,0.65 -0.872,1.051 -1.198,1.463 -6.034,7.636 -12.077,15.265 -18.082,22.926 -0.515,0.657 -1.026,0.881 -1.801,0.877 -5.507,-0.029 -11.013,-0.016 -16.519,-0.016 l -1.202,0 0,-1.24 c 0.307,-0.063 0.573,-0.143 0.845,-0.172 2.807,-0.302 3.349,-0.875 3.357,-3.834 0.021,-7.437 0.018,-14.873 -10e-4,-22.31 -0.007,-2.58 -0.684,-3.326 -3.163,-3.511 -0.899,-0.067 -1.339,-0.334 -0.948,-1.44 l 1.274,0 c 5.387,0 10.775,0.005 16.163,-0.004 1.684,-0.002 2.463,-0.772 2.597,-2.546 0.037,-0.499 0.044,-1.004 0.01,-1.502 -0.453,-6.702 -0.833,-13.41 -1.406,-20.1 -0.385,-4.485 -0.509,-4.473 -4.203,-5.451 l 0,-1.159 10.819,0 c 0.132,1.222 0.132,1.222 -0.816,1.359 -2.926,0.422 -3.555,1.091 -3.464,4.206 0.201,6.883 0.487,13.763 0.745,20.644 0.007,0.162 0.094,0.32 0.214,0.707 0.254,-0.602 0.417,-0.972 0.567,-1.347 3.216,-8.029 6.423,-16.062 9.663,-24.081 0.189,-0.469 0.637,-0.82 0.965,-1.227 0.302,0.395 0.7,0.743 0.891,1.19 3.574,8.365 7.123,16.742 10.681,25.114 0.142,0.334 0.322,0.649 0.484,0.972 l 0.332,-0.11 c 0,-7.553 0.042,-15.105 -0.024,-22.657 -0.023,-2.6 -0.596,-3.147 -2.986,-3.397 -0.951,-0.1 -1.151,-0.507 -0.829,-1.388 l 21.028,0 c 0.313,0.951 0.049,1.302 -0.879,1.403 -2.307,0.251 -2.782,1.026 -2.089,3.299 0.641,2.103 1.377,4.173 2.018,6.276 0.201,0.657 0.481,0.95 1.164,0.942 2.813,-0.032 5.626,-0.031 8.438,0 0.66,0.007 1,-0.234 1.213,-0.894 0.712,-2.21 1.488,-4.395 2.208,-6.602 0.693,-2.126 0.398,-2.697 -1.712,-2.999 -0.948,-0.135 -1.127,-0.531 -0.843,-1.428 l 20.687,0 0,1.212 c -0.364,0.054 -0.71,0.122 -1.059,0.155 -2.433,0.23 -3.104,0.977 -3.141,3.563 -0.025,1.755 -0.019,3.51 -0.024,5.264 -0.003,1.32 0,2.639 0,3.912 2.952,0.511 5.027,-0.251 6.435,-3.124 1.338,-2.731 3.052,-5.267 4.703,-7.815 1.363,-2.104 3.306,-3.414 5.755,-3.503 1.839,-0.067 3.687,0.234 5.532,0.265 2.963,0.051 5.927,0.014 8.947,0.014 l 0,1.286 c -0.51,0.06 -0.975,0.107 -1.439,0.17 -1.819,0.245 -2.666,0.89 -2.722,2.692"
             style="fill:#ffffff;fill-opacity:1;fill-rule:nonzero;stroke:none"
             id="path3440" />
        </g>
        <g
           id="g3442"
           transform="translate(256.0554,1238.4729)">
          <path
             d="m 0,0 c -0.588,-1.033 -1.08,-1.983 -1.65,-2.878 -1.306,-2.055 -2.896,-3.791 -5.256,-4.43 -4.551,-1.232 -8.588,-0.083 -11.607,3.665 -4.294,5.332 -4.848,11.552 -2.753,18.002 1.563,4.812 4.828,7.811 9.731,8.344 5.841,0.636 9.096,-1.667 10.495,-6.795 0.049,-0.183 0.138,-0.354 0.223,-0.566 0.438,0.13 0.802,0.238 1.276,0.379 -0.294,2.377 -0.559,4.689 -0.895,6.99 -0.035,0.242 -0.46,0.524 -0.751,0.605 -3.499,0.985 -7.026,1.49 -10.674,1.026 -7.632,-0.969 -14.285,-6.238 -15.196,-15.257 -0.693,-6.854 2.376,-14.226 9.345,-17.139 5.266,-2.202 10.556,-1.54 15.851,-0.179 0.258,0.067 0.57,0.343 0.666,0.6 0.862,2.313 1.681,4.645 2.535,7.032 C 0.795,-0.357 0.44,-0.198 0,0"
             style="fill:#ffffff;fill-opacity:1;fill-rule:nonzero;stroke:none"
             id="path3444" />
        </g>
        <g
           id="g3446"
           transform="translate(456.4755,1232.9126)">
          <path
             d="m 0,0 c 0.272,0.158 0.131,0.306 0.071,0.423 -0.67,0.048 -1.183,0.409 -1.724,0.714 -0.318,0.191 -0.675,0.422 -1.037,0.657 -1.654,0.231 -2.802,-0.032 -4.662,0.39 -1.538,0.378 -2.266,1.079 -2.681,1.904 0.77,0.054 1.54,0.135 2.311,-0.246 l 2.116,-0.27 C -2.255,2.16 -1.233,3.991 -0.07,5.625 -0.611,5.489 -1.682,5.518 -1.78,5.238 -2.891,5.486 -2.723,5.18 -3.151,5.188 -3.92,5.357 -4.569,5.408 -4.844,5.087 c -0.6,0.189 -1.193,0.355 -1.659,0.017 -0.702,0.21 -1.094,0.15 -1.44,0.05 -1.097,0.094 -1.996,0.069 -3.301,0.286 -2.872,-0.102 -3.654,-0.304 -4.808,-0.488 -0.546,-0.263 -1.27,-0.494 -1.354,-0.841 -1.353,-0.893 -1.931,-0.668 -2.692,-0.707 -1.121,0.365 -1.472,0.511 -1.998,0.707 -0.058,-0.128 -0.205,-0.217 0.034,-0.471 -0.7,0.059 -1.228,0.025 -1.033,-0.404 -0.116,-0.202 -0.748,-0.12 -0.389,-0.64 -0.559,-0.198 -1.631,-0.251 -0.847,-0.825 -0.376,-0.172 -1.272,-0.292 -0.44,-0.589 -0.531,-0.84 0.615,-0.615 1.659,-0.454 0.135,-0.023 0.881,-0.665 2.032,-0.017 0.239,0.134 0.938,-0.264 0.88,-0.303 -0.007,-0.156 -0.265,-0.23 -0.017,-0.471 -0.348,-0.183 -0.303,-0.414 -0.304,-0.64 -0.109,-0.161 -0.289,-0.293 -0.187,-0.538 -0.038,-0.19 -0.31,-0.342 -0.101,-0.572 -0.043,-0.205 -0.322,-0.332 0,-0.657 0.006,-0.351 -0.279,-0.485 0.051,-1.077 -0.145,-1.024 -0.018,-2.156 0.05,-3.265 -0.007,-0.254 -0.072,-0.566 0,-0.74 0.024,-0.336 -0.2,-0.808 0.187,-0.943 -0.017,-0.41 -0.107,-0.901 0.22,-0.926 -0.015,-0.657 0.046,-1.172 0.389,-1.161 0.186,-0.382 -0.001,-1.236 0.627,-1.06 0.219,-0.558 0.294,-1.491 0.846,-1.178 0.22,-0.701 0.465,-1.237 0.863,-0.741 0.229,-0.94 0.582,-1.186 1.304,0.64 -0.181,-0.859 0.086,-1.272 0.626,-1.414 l 0.271,1.33 c 0.22,-0.463 0.44,-0.488 0.661,-0.371 0.348,2.049 0.698,4.098 0.694,6.278 0.338,0.881 0.593,1.761 0.795,2.642 -0.133,1.353 -0.275,2.707 0.119,3.972 2.753,0.019 3.464,1.268 5.502,1.246 1.038,-0.029 2.631,-0.551 4.078,-0.843 C -1.524,-0.325 -0.424,0.057 0,0 Z"
             style="fill:#ffffff;fill-opacity:1;fill-rule:nonzero;stroke:none"
             id="path3448" />
        </g>
        <g
           id="g3450"
           transform="translate(227.8031,1159.5183)" />
      </g>
    </g>
  </g>
</svg>
