<?xml version="1.0" encoding="UTF-8" standalone="no"?>
<!-- Created with Inkscape (http://www.inkscape.org/) -->

<svg
   xmlns:dc="http://purl.org/dc/elements/1.1/"
   xmlns:cc="http://creativecommons.org/ns#"
   xmlns:rdf="http://www.w3.org/1999/02/22-rdf-syntax-ns#"
   xmlns:svg="http://www.w3.org/2000/svg"
   xmlns="http://www.w3.org/2000/svg"
   xmlns:sodipodi="http://sodipodi.sourceforge.net/DTD/sodipodi-0.dtd"
   xmlns:inkscape="http://www.inkscape.org/namespaces/inkscape"
   width="53.360275mm"
   height="48.4925mm"
   viewBox="0 0 189.07184 171.82382"
   id="svg4867"
   version="1.1"
   inkscape:version="0.91 r13725"
   sodipodi:docname="magn.svg">
  <defs
     id="defs4869" />
  <sodipodi:namedview
     id="base"
     pagecolor="#ffffff"
     bordercolor="#666666"
     borderopacity="1.0"
     inkscape:pageopacity="0.0"
     inkscape:pageshadow="2"
     inkscape:zoom="0.98994949"
     inkscape:cx="230.57185"
     inkscape:cy="32.671956"
     inkscape:document-units="px"
     inkscape:current-layer="layer1"
     showgrid="false"
     fit-margin-top="0"
     fit-margin-left="0"
     fit-margin-right="0"
     fit-margin-bottom="0"
     inkscape:window-width="1920"
     inkscape:window-height="1017"
     inkscape:window-x="1436"
     inkscape:window-y="-4"
     inkscape:window-maximized="1" />
  <metadata
     id="metadata4872">
    <rdf:RDF>
      <cc:Work
         rdf:about="">
        <dc:format>image/svg+xml</dc:format>
        <dc:type
           rdf:resource="http://purl.org/dc/dcmitype/StillImage" />
        <dc:title />
      </cc:Work>
    </rdf:RDF>
  </metadata>
  <g
     inkscape:label="Layer 1"
     inkscape:groupmode="layer"
     id="layer1"
     transform="translate(-47.249779,-30.280686)">
    <g
       id="g5498"
       transform="matrix(1.0877989,-0.28912756,0.30541664,1.0297822,-435.60595,-243.04733)">
      <g
         id="g5527"
         transform="matrix(0.90051773,-0.00590904,-0.00590904,0.91990482,44.87713,35.193697)">
        <path
           id="path4819-3"
           style="fill:#87979c;fill-opacity:1;fill-rule:evenodd;stroke:none;stroke-width:1px;stroke-linecap:butt;stroke-linejoin:miter;stroke-opacity:1"
           d="m 408.80993,484.29637 c 38.36379,-32.40459 22.44848,-87.99414 -39.05493,-61.12787 -43.52796,37.17645 10.32694,77.88304 39.05493,61.12787 z m 37.63041,61.60331 c -13.45078,-18.11409 -11.79149,-36.11645 -25.15062,-45.42886 l -3.17138,-8.29774 c 61.01413,-69.3988 -20.60735,-109.57583 -55.33786,-77.68759 -50.61621,39.39776 9.47607,99.96121 43.83404,82.18909 l 4.58502,12.5732 c -1.34927,14.33915 1.97265,26.43167 9.56559,49.98968 0,0 10.00333,1.33377 16.00533,-2.00067 6.00199,-3.33444 9.66988,-11.33711 9.66988,-11.33711 z"
           inkscape:connector-curvature="0"
           sodipodi:nodetypes="ccccccccccsc" />
        <g
           id="g4821"
           style="fill:#d1e1ef;fill-opacity:1;stroke:none"
           transform="translate(21.287286,26.230054)">
          <path
             id="path4819"
             style="fill:#d1e1ee;fill-opacity:1;fill-rule:evenodd;stroke:none;stroke-width:1px;stroke-linecap:butt;stroke-linejoin:miter;stroke-opacity:1"
             d="m 381.98837,452.78875 c 24.541,-20.72895 26.97937,-51.72458 9.19266,-63.86531 -10.01841,-6.83829 -28.04691,-7.92245 -48.24759,2.73744 -43.52796,37.17645 10.32694,77.88304 39.05493,61.12787 z m 36.41422,65.22741 c -13.45078,-18.11409 -9.57497,-37.073 -22.9341,-46.38541 l -3.50482,-10.96529 c 61.01412,-69.3988 -18.27324,-107.57517 -53.00375,-75.68693 -52.33424,39.97044 6.58353,97.25751 40.83304,80.18843 l 4.58502,12.5732 c -1.34927,14.33915 6.75846,31.0561 14.3514,54.61411 0,0 1.66722,-5.33512 7.66922,-8.66956 6.00199,-3.33444 12.00399,-5.66855 12.00399,-5.66855 z"
             inkscape:connector-curvature="0"
             sodipodi:nodetypes="cscccccccccsc" />
        </g>
      </g>
    </g>
  </g>
</svg>
