<?xml version="1.0" encoding="UTF-8" standalone="no"?>
<!-- Created with Inkscape (http://www.inkscape.org/) -->

<svg
   xmlns:dc="http://purl.org/dc/elements/1.1/"
   xmlns:cc="http://creativecommons.org/ns#"
   xmlns:rdf="http://www.w3.org/1999/02/22-rdf-syntax-ns#"
   xmlns:svg="http://www.w3.org/2000/svg"
   xmlns="http://www.w3.org/2000/svg"
   xmlns:sodipodi="http://sodipodi.sourceforge.net/DTD/sodipodi-0.dtd"
   xmlns:inkscape="http://www.inkscape.org/namespaces/inkscape"
   width="53.360275mm"
   height="48.4925mm"
   viewBox="0 0 189.07184 171.82382"
   id="svg4867"
   version="1.1"
   inkscape:version="0.91 r13725"
   sodipodi:docname="nut.svg">
  <defs
     id="defs4869" />
  <sodipodi:namedview
     id="base"
     pagecolor="#ffffff"
     bordercolor="#666666"
     borderopacity="1.0"
     inkscape:pageopacity="0.0"
     inkscape:pageshadow="2"
     inkscape:zoom="1.4"
     inkscape:cx="-124.0558"
     inkscape:cy="-58.107729"
     inkscape:document-units="px"
     inkscape:current-layer="layer1"
     showgrid="false"
     fit-margin-top="0"
     fit-margin-left="0"
     fit-margin-right="0"
     fit-margin-bottom="0"
     inkscape:window-width="1920"
     inkscape:window-height="1017"
     inkscape:window-x="1436"
     inkscape:window-y="-4"
     inkscape:window-maximized="1" />
  <metadata
     id="metadata4872">
    <rdf:RDF>
      <cc:Work
         rdf:about="">
        <dc:format>image/svg+xml</dc:format>
        <dc:type
           rdf:resource="http://purl.org/dc/dcmitype/StillImage" />
        <dc:title />
      </cc:Work>
    </rdf:RDF>
  </metadata>
  <g
     inkscape:label="Layer 1"
     inkscape:groupmode="layer"
     id="layer1"
     transform="translate(-47.249779,-30.280686)">
    <g
       id="g7191"
       transform="matrix(0.84541433,0,0,0.84541433,9.1441737,12.818771)">
      <path
         sodipodi:nodetypes="cccccc"
         style="fill:#ffaa00;fill-opacity:1;fill-rule:evenodd;stroke:none;stroke-width:1px;stroke-linecap:butt;stroke-linejoin:miter;stroke-opacity:1"
         d="M 157.1544,90.69304 121.546,78.763388 94.655169,104.74021 c 0,0 -26.267414,26.77077 15.915221,44.26943 l 43.31594,-3.68638 c -53.03237,-0.37607 -38.32494,-61.376666 3.26807,-54.63022 z"
         id="path4776-8"
         inkscape:connector-curvature="0" />
      <g
         transform="matrix(0.79310352,0.38028808,-0.39609148,0.82606203,127.17848,-230.54527)"
         id="g4778">
        <g
           id="g4771">
          <path
             id="path4769"
             style="fill:#ffff00;fill-opacity:1;fill-rule:evenodd;stroke:none;stroke-width:1px;stroke-linecap:butt;stroke-linejoin:miter;stroke-opacity:1"
             d="m 191.92898,367.47879 c -54.68655,23.35206 -65.0395,-42.16414 -32.32487,-56.56854 47.71219,-21.00789 70.21882,34.91471 32.32487,56.56854 z m 14.38252,43.11292 50.77233,-45.63831 -3.03047,-61.11423 -46.46702,-42.93148 -69.70051,5.05075 c -18.82711,24.01716 -30.53272,33.79132 -44.446719,47.98226 5.545795,25.19419 3.983379,43.35508 2.525381,61.6193 19.650668,12.63336 40.990518,23.57755 53.900988,42.95111 z"
             inkscape:connector-curvature="0"
             sodipodi:nodetypes="cscccccccccc" />
        </g>
        <path
           sodipodi:nodetypes="ccccccccccc"
           style="fill:#ffaa00;fill-opacity:1;fill-rule:evenodd;stroke:none;stroke-width:1px;stroke-linecap:butt;stroke-linejoin:miter;stroke-opacity:1"
           d="m 204.47777,411.9304 41.88674,-17.22148 c 5.40906,-12.02541 24.73721,-22.71705 36.86074,-34.74246 -4.42566,-18.57149 -7.33076,-38.28339 -4.69767,-62.14893 -18.12848,-14.52141 -38.34462,-30.37659 -52.97922,-44.89799 -19.99214,1.5807 -39.31739,4.00507 -59.30953,3.86897 l -28.10047,9.42247 c 21.25219,-0.56666 36.57582,1.83096 67.42768,-3.53553 14.40896,17.05985 28.40895,34.93764 47.98225,41.6688 -2.95306,21.84793 -1.10924,41.29743 3.03045,59.59899 -22.18056,14.71182 -39.9586,31.60231 -52.10097,47.98716 z"
           id="path4776"
           inkscape:connector-curvature="0" />
      </g>
    </g>
  </g>
</svg>
