<?xml version="1.0" encoding="UTF-8" standalone="no"?>
<!-- Created with Inkscape (http://www.inkscape.org/) -->

<svg
   xmlns:dc="http://purl.org/dc/elements/1.1/"
   xmlns:cc="http://creativecommons.org/ns#"
   xmlns:rdf="http://www.w3.org/1999/02/22-rdf-syntax-ns#"
   xmlns:svg="http://www.w3.org/2000/svg"
   xmlns="http://www.w3.org/2000/svg"
   xmlns:sodipodi="http://sodipodi.sourceforge.net/DTD/sodipodi-0.dtd"
   xmlns:inkscape="http://www.inkscape.org/namespaces/inkscape"
   width="53.360275mm"
   height="48.4925mm"
   viewBox="0 0 189.07184 171.82382"
   id="svg4867"
   version="1.1"
   inkscape:version="0.91 r13725"
   sodipodi:docname="puzzle.svg">
  <defs
     id="defs4869" />
  <sodipodi:namedview
     id="base"
     pagecolor="#ffffff"
     bordercolor="#666666"
     borderopacity="1.0"
     inkscape:pageopacity="0.0"
     inkscape:pageshadow="2"
     inkscape:zoom="2.8"
     inkscape:cx="75.56355"
     inkscape:cy="69.791348"
     inkscape:document-units="px"
     inkscape:current-layer="layer1"
     showgrid="false"
     fit-margin-top="0"
     fit-margin-left="0"
     fit-margin-right="0"
     fit-margin-bottom="0"
     inkscape:window-width="1920"
     inkscape:window-height="1017"
     inkscape:window-x="1436"
     inkscape:window-y="-4"
     inkscape:window-maximized="1" />
  <metadata
     id="metadata4872">
    <rdf:RDF>
      <cc:Work
         rdf:about="">
        <dc:format>image/svg+xml</dc:format>
        <dc:type
           rdf:resource="http://purl.org/dc/dcmitype/StillImage" />
        <dc:title />
      </cc:Work>
    </rdf:RDF>
  </metadata>
  <g
     inkscape:label="Layer 1"
     inkscape:groupmode="layer"
     id="layer1"
     transform="translate(-47.249779,-30.280686)">
    <g
       transform="matrix(0.69413129,0.0044535,-0.00441289,0.70051988,-238.87004,-63.698425)"
       id="g5432">
      <path
         sodipodi:nodetypes="cccssccccscsscssczcsscc"
         inkscape:connector-curvature="0"
         id="path4765-1"
         d="m 547.47073,160.45265 -14.51995,-0.0511 -21.13996,29.02122 c 0.001,-4.7e-4 -6.98998,-34.58816 -36.08122,-24.78738 -3.82376,1.28822 1.46018,4.71858 -3.41626,9.25872 -29.29443,27.27412 7.58049,40.39559 7.58049,40.39559 l -37.40538,26.95723 15.66003,29.70456 13.6344,0.60001 c 0,0 22.09465,-24.86512 38.25709,-5.67223 16.16244,19.1929 -21.45215,29.9159 -21.45215,29.9159 0,0 7.61281,29.17431 19.50127,38.4683 2.34249,1.83128 15.04917,1.98421 16.71193,1.98421 10.10153,0 34.10444,-33.28864 34.10444,-33.28864 2.31773,7.99675 -0.0126,23.21346 9.52946,27.7685 6.19039,2.95505 18.71743,1.81673 25.01444,-8.43044 15.37462,-25.01925 -8.55891,-31.648 -6.53447,-34.68467 0,0 34.77571,-12.9329 36.27269,-27.59537 1.49697,-14.66246 -29.47827,-35.67659 -29.47827,-35.67659 0,0 -11.98728,-3.24971 -14.18685,0.67358 -5.08116,9.06306 -11.68944,18.5924 -24.0405,4.18284 -18.18275,-21.2132 21.31473,-28.92677 21.31473,-28.92677 z"
         style="fill:#9a9ab1;fill-opacity:1;fill-rule:evenodd;stroke:none;stroke-width:1px;stroke-linecap:butt;stroke-linejoin:miter;stroke-opacity:1" />
      <path
         sodipodi:nodetypes="ccscccscscsczcscc"
         inkscape:connector-curvature="0"
         id="path4765"
         d="m 533.09877,159.92524 -35.65991,28.9701 c 0,0 -10.20306,-42.80277 -39.49748,-15.52866 -29.29443,27.27412 7.58049,40.39559 7.58049,40.39559 l -37.40538,26.95723 29.29443,30.30457 c 0,0 22.09465,-24.86512 38.25709,-5.67223 16.16244,19.1929 -21.45215,29.9159 -21.45215,29.9159 0,0 26.11168,40.45251 36.2132,40.45251 10.10153,0 34.10444,-33.28864 34.10444,-33.28864 3.82135,13.1846 23.20865,44.71375 39.21212,18.67117 15.37462,-25.01925 -13.22713,-30.98111 -11.20269,-34.01778 0,0 34.77571,-12.9329 36.27269,-27.59537 1.49697,-14.66246 -29.47827,-35.67659 -29.47827,-35.67659 0,0 -20.0446,26.06962 -38.22735,4.85642 -18.18274,-21.2132 21.31473,-28.92677 21.31473,-28.92677 z"
         style="fill:#cfd9dc;fill-opacity:1;fill-rule:evenodd;stroke:none;stroke-width:1px;stroke-linecap:butt;stroke-linejoin:miter;stroke-opacity:1" />
    </g>
  </g>
</svg>
